<mxfile host="app.diagrams.net" modified="2023-06-07T14:13:29.656Z" agent="Mozilla/5.0 (Windows NT 10.0; Win64; x64) AppleWebKit/537.36 (KHTML, like Gecko) Chrome/114.0.0.0 Safari/537.36" etag="Hg7vLOJoBKOttnCgZ_03" version="21.3.7" type="github">
  <diagram name="Sayfa -1" id="FImM7PQ11e-2ZyEKC8ue">
    <mxGraphModel dx="1332" dy="452" grid="1" gridSize="10" guides="1" tooltips="1" connect="1" arrows="1" fold="1" page="1" pageScale="1" pageWidth="827" pageHeight="1169" math="0" shadow="0">
      <root>
        <mxCell id="0" />
        <mxCell id="1" parent="0" />
        <mxCell id="tV_oRLcPZ4IN4rEf22wq-1" value="University" style="swimlane;fontStyle=1;align=center;verticalAlign=top;childLayout=stackLayout;horizontal=1;startSize=26;horizontalStack=0;resizeParent=1;resizeParentMax=0;resizeLast=0;collapsible=1;marginBottom=0;whiteSpace=wrap;html=1;" parent="1" vertex="1">
          <mxGeometry x="40" y="240" width="160" height="86" as="geometry" />
        </mxCell>
        <mxCell id="tV_oRLcPZ4IN4rEf22wq-2" value="+ field: type" style="text;strokeColor=none;fillColor=none;align=left;verticalAlign=top;spacingLeft=4;spacingRight=4;overflow=hidden;rotatable=0;points=[[0,0.5],[1,0.5]];portConstraint=eastwest;whiteSpace=wrap;html=1;" parent="tV_oRLcPZ4IN4rEf22wq-1" vertex="1">
          <mxGeometry y="26" width="160" height="26" as="geometry" />
        </mxCell>
        <mxCell id="tV_oRLcPZ4IN4rEf22wq-3" value="" style="line;strokeWidth=1;fillColor=none;align=left;verticalAlign=middle;spacingTop=-1;spacingLeft=3;spacingRight=3;rotatable=0;labelPosition=right;points=[];portConstraint=eastwest;strokeColor=inherit;" parent="tV_oRLcPZ4IN4rEf22wq-1" vertex="1">
          <mxGeometry y="52" width="160" height="8" as="geometry" />
        </mxCell>
        <mxCell id="tV_oRLcPZ4IN4rEf22wq-4" value="+ method(type): type" style="text;strokeColor=none;fillColor=none;align=left;verticalAlign=top;spacingLeft=4;spacingRight=4;overflow=hidden;rotatable=0;points=[[0,0.5],[1,0.5]];portConstraint=eastwest;whiteSpace=wrap;html=1;" parent="tV_oRLcPZ4IN4rEf22wq-1" vertex="1">
          <mxGeometry y="60" width="160" height="26" as="geometry" />
        </mxCell>
        <mxCell id="tV_oRLcPZ4IN4rEf22wq-5" value="Classes&lt;br&gt;" style="swimlane;fontStyle=1;align=center;verticalAlign=top;childLayout=stackLayout;horizontal=1;startSize=26;horizontalStack=0;resizeParent=1;resizeParentMax=0;resizeLast=0;collapsible=1;marginBottom=0;whiteSpace=wrap;html=1;" parent="1" vertex="1">
          <mxGeometry x="40" y="600" width="160" height="86" as="geometry" />
        </mxCell>
        <mxCell id="tV_oRLcPZ4IN4rEf22wq-6" value="+ field: type" style="text;strokeColor=none;fillColor=none;align=left;verticalAlign=top;spacingLeft=4;spacingRight=4;overflow=hidden;rotatable=0;points=[[0,0.5],[1,0.5]];portConstraint=eastwest;whiteSpace=wrap;html=1;" parent="tV_oRLcPZ4IN4rEf22wq-5" vertex="1">
          <mxGeometry y="26" width="160" height="26" as="geometry" />
        </mxCell>
        <mxCell id="tV_oRLcPZ4IN4rEf22wq-7" value="" style="line;strokeWidth=1;fillColor=none;align=left;verticalAlign=middle;spacingTop=-1;spacingLeft=3;spacingRight=3;rotatable=0;labelPosition=right;points=[];portConstraint=eastwest;strokeColor=inherit;" parent="tV_oRLcPZ4IN4rEf22wq-5" vertex="1">
          <mxGeometry y="52" width="160" height="8" as="geometry" />
        </mxCell>
        <mxCell id="tV_oRLcPZ4IN4rEf22wq-8" value="+ method(type): type" style="text;strokeColor=none;fillColor=none;align=left;verticalAlign=top;spacingLeft=4;spacingRight=4;overflow=hidden;rotatable=0;points=[[0,0.5],[1,0.5]];portConstraint=eastwest;whiteSpace=wrap;html=1;" parent="tV_oRLcPZ4IN4rEf22wq-5" vertex="1">
          <mxGeometry y="60" width="160" height="26" as="geometry" />
        </mxCell>
        <mxCell id="tV_oRLcPZ4IN4rEf22wq-9" value="has" style="endArrow=diamondThin;endFill=1;endSize=24;html=1;rounded=0;entryX=0.519;entryY=1.115;entryDx=0;entryDy=0;entryPerimeter=0;exitX=0.5;exitY=0;exitDx=0;exitDy=0;" parent="1" source="tV_oRLcPZ4IN4rEf22wq-5" target="tV_oRLcPZ4IN4rEf22wq-4" edge="1">
          <mxGeometry width="160" relative="1" as="geometry">
            <mxPoint x="120" y="580" as="sourcePoint" />
            <mxPoint x="170" y="430" as="targetPoint" />
            <Array as="points">
              <mxPoint x="120" y="520" />
            </Array>
          </mxGeometry>
        </mxCell>
        <mxCell id="tV_oRLcPZ4IN4rEf22wq-11" value="1" style="edgeLabel;html=1;align=center;verticalAlign=middle;resizable=0;points=[];" parent="tV_oRLcPZ4IN4rEf22wq-9" vertex="1" connectable="0">
          <mxGeometry x="0.9162" y="-5" relative="1" as="geometry">
            <mxPoint as="offset" />
          </mxGeometry>
        </mxCell>
        <mxCell id="tV_oRLcPZ4IN4rEf22wq-12" value="1..*" style="edgeLabel;html=1;align=center;verticalAlign=middle;resizable=0;points=[];" parent="tV_oRLcPZ4IN4rEf22wq-9" vertex="1" connectable="0">
          <mxGeometry x="-0.8927" y="2" relative="1" as="geometry">
            <mxPoint as="offset" />
          </mxGeometry>
        </mxCell>
        <mxCell id="tV_oRLcPZ4IN4rEf22wq-13" value="Departments&lt;br&gt;" style="swimlane;fontStyle=1;align=center;verticalAlign=top;childLayout=stackLayout;horizontal=1;startSize=26;horizontalStack=0;resizeParent=1;resizeParentMax=0;resizeLast=0;collapsible=1;marginBottom=0;whiteSpace=wrap;html=1;" parent="1" vertex="1">
          <mxGeometry x="320" y="550" width="160" height="86" as="geometry" />
        </mxCell>
        <mxCell id="tV_oRLcPZ4IN4rEf22wq-14" value="+ field: type" style="text;strokeColor=none;fillColor=none;align=left;verticalAlign=top;spacingLeft=4;spacingRight=4;overflow=hidden;rotatable=0;points=[[0,0.5],[1,0.5]];portConstraint=eastwest;whiteSpace=wrap;html=1;" parent="tV_oRLcPZ4IN4rEf22wq-13" vertex="1">
          <mxGeometry y="26" width="160" height="26" as="geometry" />
        </mxCell>
        <mxCell id="tV_oRLcPZ4IN4rEf22wq-15" value="" style="line;strokeWidth=1;fillColor=none;align=left;verticalAlign=middle;spacingTop=-1;spacingLeft=3;spacingRight=3;rotatable=0;labelPosition=right;points=[];portConstraint=eastwest;strokeColor=inherit;" parent="tV_oRLcPZ4IN4rEf22wq-13" vertex="1">
          <mxGeometry y="52" width="160" height="8" as="geometry" />
        </mxCell>
        <mxCell id="tV_oRLcPZ4IN4rEf22wq-16" value="+ method(type): type" style="text;strokeColor=none;fillColor=none;align=left;verticalAlign=top;spacingLeft=4;spacingRight=4;overflow=hidden;rotatable=0;points=[[0,0.5],[1,0.5]];portConstraint=eastwest;whiteSpace=wrap;html=1;" parent="tV_oRLcPZ4IN4rEf22wq-13" vertex="1">
          <mxGeometry y="60" width="160" height="26" as="geometry" />
        </mxCell>
        <mxCell id="tV_oRLcPZ4IN4rEf22wq-17" value="has" style="endArrow=diamondThin;endFill=1;endSize=24;html=1;rounded=0;entryX=0.756;entryY=1.154;entryDx=0;entryDy=0;entryPerimeter=0;exitX=0.5;exitY=0;exitDx=0;exitDy=0;" parent="1" source="tV_oRLcPZ4IN4rEf22wq-13" target="tV_oRLcPZ4IN4rEf22wq-4" edge="1">
          <mxGeometry width="160" relative="1" as="geometry">
            <mxPoint x="330" y="450" as="sourcePoint" />
            <mxPoint x="490" y="450" as="targetPoint" />
          </mxGeometry>
        </mxCell>
        <mxCell id="tV_oRLcPZ4IN4rEf22wq-18" value="1" style="edgeLabel;html=1;align=center;verticalAlign=middle;resizable=0;points=[];" parent="tV_oRLcPZ4IN4rEf22wq-17" vertex="1" connectable="0">
          <mxGeometry x="0.7277" y="-3" relative="1" as="geometry">
            <mxPoint as="offset" />
          </mxGeometry>
        </mxCell>
        <mxCell id="tV_oRLcPZ4IN4rEf22wq-19" value="1..*" style="edgeLabel;html=1;align=center;verticalAlign=middle;resizable=0;points=[];" parent="tV_oRLcPZ4IN4rEf22wq-17" vertex="1" connectable="0">
          <mxGeometry x="-0.7726" y="1" relative="1" as="geometry">
            <mxPoint y="-1" as="offset" />
          </mxGeometry>
        </mxCell>
        <mxCell id="tV_oRLcPZ4IN4rEf22wq-20" value="Offices" style="swimlane;fontStyle=1;align=center;verticalAlign=top;childLayout=stackLayout;horizontal=1;startSize=26;horizontalStack=0;resizeParent=1;resizeParentMax=0;resizeLast=0;collapsible=1;marginBottom=0;whiteSpace=wrap;html=1;" parent="1" vertex="1">
          <mxGeometry x="440" y="320" width="160" height="86" as="geometry" />
        </mxCell>
        <mxCell id="tV_oRLcPZ4IN4rEf22wq-21" value="+ field: type" style="text;strokeColor=none;fillColor=none;align=left;verticalAlign=top;spacingLeft=4;spacingRight=4;overflow=hidden;rotatable=0;points=[[0,0.5],[1,0.5]];portConstraint=eastwest;whiteSpace=wrap;html=1;" parent="tV_oRLcPZ4IN4rEf22wq-20" vertex="1">
          <mxGeometry y="26" width="160" height="26" as="geometry" />
        </mxCell>
        <mxCell id="tV_oRLcPZ4IN4rEf22wq-22" value="" style="line;strokeWidth=1;fillColor=none;align=left;verticalAlign=middle;spacingTop=-1;spacingLeft=3;spacingRight=3;rotatable=0;labelPosition=right;points=[];portConstraint=eastwest;strokeColor=inherit;" parent="tV_oRLcPZ4IN4rEf22wq-20" vertex="1">
          <mxGeometry y="52" width="160" height="8" as="geometry" />
        </mxCell>
        <mxCell id="tV_oRLcPZ4IN4rEf22wq-23" value="+ method(type): type" style="text;strokeColor=none;fillColor=none;align=left;verticalAlign=top;spacingLeft=4;spacingRight=4;overflow=hidden;rotatable=0;points=[[0,0.5],[1,0.5]];portConstraint=eastwest;whiteSpace=wrap;html=1;" parent="tV_oRLcPZ4IN4rEf22wq-20" vertex="1">
          <mxGeometry y="60" width="160" height="26" as="geometry" />
        </mxCell>
        <mxCell id="tV_oRLcPZ4IN4rEf22wq-24" value="has" style="endArrow=diamondThin;endFill=1;endSize=24;html=1;rounded=0;exitX=0;exitY=0.5;exitDx=0;exitDy=0;entryX=1;entryY=0.5;entryDx=0;entryDy=0;" parent="1" source="tV_oRLcPZ4IN4rEf22wq-21" target="tV_oRLcPZ4IN4rEf22wq-2" edge="1">
          <mxGeometry width="160" relative="1" as="geometry">
            <mxPoint x="330" y="430" as="sourcePoint" />
            <mxPoint x="490" y="430" as="targetPoint" />
          </mxGeometry>
        </mxCell>
        <mxCell id="tV_oRLcPZ4IN4rEf22wq-25" value="1" style="edgeLabel;html=1;align=center;verticalAlign=middle;resizable=0;points=[];" parent="tV_oRLcPZ4IN4rEf22wq-24" vertex="1" connectable="0">
          <mxGeometry x="0.58" relative="1" as="geometry">
            <mxPoint x="1" as="offset" />
          </mxGeometry>
        </mxCell>
        <mxCell id="tV_oRLcPZ4IN4rEf22wq-26" value="1..*" style="edgeLabel;html=1;align=center;verticalAlign=middle;resizable=0;points=[];" parent="tV_oRLcPZ4IN4rEf22wq-24" vertex="1" connectable="0">
          <mxGeometry x="-0.67" relative="1" as="geometry">
            <mxPoint as="offset" />
          </mxGeometry>
        </mxCell>
        <mxCell id="tV_oRLcPZ4IN4rEf22wq-27" value="has" style="endArrow=diamondThin;endFill=1;endSize=24;html=1;rounded=0;entryX=0.606;entryY=-0.012;entryDx=0;entryDy=0;entryPerimeter=0;exitX=0.513;exitY=1.269;exitDx=0;exitDy=0;exitPerimeter=0;" parent="1" source="tV_oRLcPZ4IN4rEf22wq-23" target="tV_oRLcPZ4IN4rEf22wq-13" edge="1">
          <mxGeometry width="160" relative="1" as="geometry">
            <mxPoint x="330" y="410" as="sourcePoint" />
            <mxPoint x="490" y="410" as="targetPoint" />
          </mxGeometry>
        </mxCell>
        <mxCell id="tV_oRLcPZ4IN4rEf22wq-28" value="1..*" style="edgeLabel;html=1;align=center;verticalAlign=middle;resizable=0;points=[];" parent="tV_oRLcPZ4IN4rEf22wq-27" vertex="1" connectable="0">
          <mxGeometry x="0.8112" y="1" relative="1" as="geometry">
            <mxPoint x="1" as="offset" />
          </mxGeometry>
        </mxCell>
        <mxCell id="tV_oRLcPZ4IN4rEf22wq-29" value="1..*" style="edgeLabel;html=1;align=center;verticalAlign=middle;resizable=0;points=[];" parent="tV_oRLcPZ4IN4rEf22wq-27" vertex="1" connectable="0">
          <mxGeometry x="-0.8187" y="3" relative="1" as="geometry">
            <mxPoint as="offset" />
          </mxGeometry>
        </mxCell>
        <mxCell id="tV_oRLcPZ4IN4rEf22wq-30" value="Employee" style="swimlane;fontStyle=1;align=center;verticalAlign=top;childLayout=stackLayout;horizontal=1;startSize=26;horizontalStack=0;resizeParent=1;resizeParentMax=0;resizeLast=0;collapsible=1;marginBottom=0;whiteSpace=wrap;html=1;" parent="1" vertex="1">
          <mxGeometry x="240" y="40" width="160" height="86" as="geometry" />
        </mxCell>
        <mxCell id="tV_oRLcPZ4IN4rEf22wq-31" value="+ field: type" style="text;strokeColor=none;fillColor=none;align=left;verticalAlign=top;spacingLeft=4;spacingRight=4;overflow=hidden;rotatable=0;points=[[0,0.5],[1,0.5]];portConstraint=eastwest;whiteSpace=wrap;html=1;" parent="tV_oRLcPZ4IN4rEf22wq-30" vertex="1">
          <mxGeometry y="26" width="160" height="26" as="geometry" />
        </mxCell>
        <mxCell id="tV_oRLcPZ4IN4rEf22wq-32" value="" style="line;strokeWidth=1;fillColor=none;align=left;verticalAlign=middle;spacingTop=-1;spacingLeft=3;spacingRight=3;rotatable=0;labelPosition=right;points=[];portConstraint=eastwest;strokeColor=inherit;" parent="tV_oRLcPZ4IN4rEf22wq-30" vertex="1">
          <mxGeometry y="52" width="160" height="8" as="geometry" />
        </mxCell>
        <mxCell id="tV_oRLcPZ4IN4rEf22wq-33" value="+ method(type): type" style="text;strokeColor=none;fillColor=none;align=left;verticalAlign=top;spacingLeft=4;spacingRight=4;overflow=hidden;rotatable=0;points=[[0,0.5],[1,0.5]];portConstraint=eastwest;whiteSpace=wrap;html=1;" parent="tV_oRLcPZ4IN4rEf22wq-30" vertex="1">
          <mxGeometry y="60" width="160" height="26" as="geometry" />
        </mxCell>
        <mxCell id="tV_oRLcPZ4IN4rEf22wq-34" value="has" style="endArrow=diamondThin;endFill=1;endSize=24;html=1;rounded=0;exitX=0.338;exitY=1.115;exitDx=0;exitDy=0;exitPerimeter=0;entryX=0.438;entryY=-0.012;entryDx=0;entryDy=0;entryPerimeter=0;" parent="1" source="tV_oRLcPZ4IN4rEf22wq-33" target="tV_oRLcPZ4IN4rEf22wq-1" edge="1">
          <mxGeometry width="160" relative="1" as="geometry">
            <mxPoint x="330" y="230" as="sourcePoint" />
            <mxPoint x="490" y="230" as="targetPoint" />
          </mxGeometry>
        </mxCell>
        <mxCell id="tV_oRLcPZ4IN4rEf22wq-35" value="1..*" style="edgeLabel;html=1;align=center;verticalAlign=middle;resizable=0;points=[];" parent="tV_oRLcPZ4IN4rEf22wq-34" vertex="1" connectable="0">
          <mxGeometry x="0.8221" y="-4" relative="1" as="geometry">
            <mxPoint as="offset" />
          </mxGeometry>
        </mxCell>
        <mxCell id="tV_oRLcPZ4IN4rEf22wq-36" value="1..*" style="edgeLabel;html=1;align=center;verticalAlign=middle;resizable=0;points=[];" parent="tV_oRLcPZ4IN4rEf22wq-34" vertex="1" connectable="0">
          <mxGeometry x="-0.7949" y="-2" relative="1" as="geometry">
            <mxPoint as="offset" />
          </mxGeometry>
        </mxCell>
        <mxCell id="tV_oRLcPZ4IN4rEf22wq-37" value="Officier" style="swimlane;fontStyle=1;align=center;verticalAlign=top;childLayout=stackLayout;horizontal=1;startSize=26;horizontalStack=0;resizeParent=1;resizeParentMax=0;resizeLast=0;collapsible=1;marginBottom=0;whiteSpace=wrap;html=1;" parent="1" vertex="1">
          <mxGeometry x="600" y="2" width="160" height="86" as="geometry" />
        </mxCell>
        <mxCell id="tV_oRLcPZ4IN4rEf22wq-38" value="+ field: type" style="text;strokeColor=none;fillColor=none;align=left;verticalAlign=top;spacingLeft=4;spacingRight=4;overflow=hidden;rotatable=0;points=[[0,0.5],[1,0.5]];portConstraint=eastwest;whiteSpace=wrap;html=1;" parent="tV_oRLcPZ4IN4rEf22wq-37" vertex="1">
          <mxGeometry y="26" width="160" height="26" as="geometry" />
        </mxCell>
        <mxCell id="tV_oRLcPZ4IN4rEf22wq-39" value="" style="line;strokeWidth=1;fillColor=none;align=left;verticalAlign=middle;spacingTop=-1;spacingLeft=3;spacingRight=3;rotatable=0;labelPosition=right;points=[];portConstraint=eastwest;strokeColor=inherit;" parent="tV_oRLcPZ4IN4rEf22wq-37" vertex="1">
          <mxGeometry y="52" width="160" height="8" as="geometry" />
        </mxCell>
        <mxCell id="tV_oRLcPZ4IN4rEf22wq-40" value="+ method(type): type" style="text;strokeColor=none;fillColor=none;align=left;verticalAlign=top;spacingLeft=4;spacingRight=4;overflow=hidden;rotatable=0;points=[[0,0.5],[1,0.5]];portConstraint=eastwest;whiteSpace=wrap;html=1;" parent="tV_oRLcPZ4IN4rEf22wq-37" vertex="1">
          <mxGeometry y="60" width="160" height="26" as="geometry" />
        </mxCell>
        <mxCell id="tV_oRLcPZ4IN4rEf22wq-41" value="Professor" style="swimlane;fontStyle=1;align=center;verticalAlign=top;childLayout=stackLayout;horizontal=1;startSize=26;horizontalStack=0;resizeParent=1;resizeParentMax=0;resizeLast=0;collapsible=1;marginBottom=0;whiteSpace=wrap;html=1;" parent="1" vertex="1">
          <mxGeometry x="600" y="120" width="160" height="86" as="geometry" />
        </mxCell>
        <mxCell id="tV_oRLcPZ4IN4rEf22wq-42" value="+ field: type" style="text;strokeColor=none;fillColor=none;align=left;verticalAlign=top;spacingLeft=4;spacingRight=4;overflow=hidden;rotatable=0;points=[[0,0.5],[1,0.5]];portConstraint=eastwest;whiteSpace=wrap;html=1;" parent="tV_oRLcPZ4IN4rEf22wq-41" vertex="1">
          <mxGeometry y="26" width="160" height="26" as="geometry" />
        </mxCell>
        <mxCell id="tV_oRLcPZ4IN4rEf22wq-43" value="" style="line;strokeWidth=1;fillColor=none;align=left;verticalAlign=middle;spacingTop=-1;spacingLeft=3;spacingRight=3;rotatable=0;labelPosition=right;points=[];portConstraint=eastwest;strokeColor=inherit;" parent="tV_oRLcPZ4IN4rEf22wq-41" vertex="1">
          <mxGeometry y="52" width="160" height="8" as="geometry" />
        </mxCell>
        <mxCell id="tV_oRLcPZ4IN4rEf22wq-44" value="+ method(type): type" style="text;strokeColor=none;fillColor=none;align=left;verticalAlign=top;spacingLeft=4;spacingRight=4;overflow=hidden;rotatable=0;points=[[0,0.5],[1,0.5]];portConstraint=eastwest;whiteSpace=wrap;html=1;" parent="tV_oRLcPZ4IN4rEf22wq-41" vertex="1">
          <mxGeometry y="60" width="160" height="26" as="geometry" />
        </mxCell>
        <mxCell id="tV_oRLcPZ4IN4rEf22wq-45" value="" style="endArrow=diamondThin;endFill=1;endSize=24;html=1;rounded=0;exitX=-0.012;exitY=0.769;exitDx=0;exitDy=0;exitPerimeter=0;entryX=1.019;entryY=0.077;entryDx=0;entryDy=0;entryPerimeter=0;" parent="1" source="tV_oRLcPZ4IN4rEf22wq-38" target="tV_oRLcPZ4IN4rEf22wq-31" edge="1">
          <mxGeometry width="160" relative="1" as="geometry">
            <mxPoint x="370" y="210" as="sourcePoint" />
            <mxPoint x="530" y="210" as="targetPoint" />
          </mxGeometry>
        </mxCell>
        <mxCell id="tV_oRLcPZ4IN4rEf22wq-46" value="" style="endArrow=diamondThin;endFill=1;endSize=24;html=1;rounded=0;exitX=0;exitY=0.5;exitDx=0;exitDy=0;entryX=1.013;entryY=-0.077;entryDx=0;entryDy=0;entryPerimeter=0;" parent="1" source="tV_oRLcPZ4IN4rEf22wq-42" target="tV_oRLcPZ4IN4rEf22wq-33" edge="1">
          <mxGeometry width="160" relative="1" as="geometry">
            <mxPoint x="370" y="210" as="sourcePoint" />
            <mxPoint x="530" y="210" as="targetPoint" />
          </mxGeometry>
        </mxCell>
        <mxCell id="tV_oRLcPZ4IN4rEf22wq-47" value="" style="endArrow=diamondThin;endFill=1;endSize=24;html=1;rounded=0;exitX=0.719;exitY=1.298;exitDx=0;exitDy=0;exitPerimeter=0;entryX=0.453;entryY=-0.058;entryDx=0;entryDy=0;entryPerimeter=0;" parent="1" source="tV_oRLcPZ4IN4rEf22wq-33" target="tV_oRLcPZ4IN4rEf22wq-20" edge="1">
          <mxGeometry width="160" relative="1" as="geometry">
            <mxPoint x="400" y="300" as="sourcePoint" />
            <mxPoint x="560" y="300" as="targetPoint" />
          </mxGeometry>
        </mxCell>
        <mxCell id="tV_oRLcPZ4IN4rEf22wq-48" value="1..*" style="edgeLabel;html=1;align=center;verticalAlign=middle;resizable=0;points=[];" parent="tV_oRLcPZ4IN4rEf22wq-47" vertex="1" connectable="0">
          <mxGeometry x="-0.8523" y="-1" relative="1" as="geometry">
            <mxPoint as="offset" />
          </mxGeometry>
        </mxCell>
        <mxCell id="tV_oRLcPZ4IN4rEf22wq-49" value="has" style="edgeLabel;html=1;align=center;verticalAlign=middle;resizable=0;points=[];" parent="tV_oRLcPZ4IN4rEf22wq-47" vertex="1" connectable="0">
          <mxGeometry x="-0.2086" y="-3" relative="1" as="geometry">
            <mxPoint as="offset" />
          </mxGeometry>
        </mxCell>
        <mxCell id="tV_oRLcPZ4IN4rEf22wq-50" value="1" style="edgeLabel;html=1;align=center;verticalAlign=middle;resizable=0;points=[];" parent="tV_oRLcPZ4IN4rEf22wq-47" vertex="1" connectable="0">
          <mxGeometry x="0.8296" y="1" relative="1" as="geometry">
            <mxPoint as="offset" />
          </mxGeometry>
        </mxCell>
      </root>
    </mxGraphModel>
  </diagram>
</mxfile>
